<mxfile host="app.diagrams.net" modified="2022-05-06T08:20:54.201Z" agent="5.0 (Windows NT 10.0; Win64; x64) AppleWebKit/537.36 (KHTML, like Gecko) Chrome/100.0.4896.127 Safari/537.36" etag="plwO3de7iTKWoPyGHtCX" version="17.4.3" type="github">
  <diagram id="zNS4k7UHoYn0XevDIgqS" name="Page-1">
    <mxGraphModel dx="1886" dy="818" grid="1" gridSize="10" guides="1" tooltips="1" connect="1" arrows="1" fold="1" page="1" pageScale="1" pageWidth="1200" pageHeight="1600" math="0" shadow="0">
      <root>
        <mxCell id="0" />
        <mxCell id="1" parent="0" />
        <mxCell id="5-wpaDUgqPkrNBBe_I43-2" value="1. IAP" style="text;html=1;strokeColor=none;fillColor=none;align=center;verticalAlign=middle;whiteSpace=wrap;rounded=0;fontStyle=1;fontSize=23;" vertex="1" parent="1">
          <mxGeometry x="20" y="320" width="100" height="30" as="geometry" />
        </mxCell>
        <mxCell id="5-wpaDUgqPkrNBBe_I43-6" value="" style="edgeStyle=orthogonalEdgeStyle;rounded=0;orthogonalLoop=1;jettySize=auto;html=1;fontSize=16;" edge="1" parent="1" source="5-wpaDUgqPkrNBBe_I43-8" target="5-wpaDUgqPkrNBBe_I43-9">
          <mxGeometry relative="1" as="geometry" />
        </mxCell>
        <mxCell id="5-wpaDUgqPkrNBBe_I43-7" value="2FA" style="edgeLabel;html=1;align=center;verticalAlign=middle;resizable=0;points=[];fontSize=16;" vertex="1" connectable="0" parent="5-wpaDUgqPkrNBBe_I43-6">
          <mxGeometry x="-0.2" y="2" relative="1" as="geometry">
            <mxPoint as="offset" />
          </mxGeometry>
        </mxCell>
        <mxCell id="5-wpaDUgqPkrNBBe_I43-8" value="SSH" style="rounded=0;whiteSpace=wrap;html=1;fontSize=20;fontStyle=0" vertex="1" parent="1">
          <mxGeometry x="190" y="310" width="80" height="50" as="geometry" />
        </mxCell>
        <mxCell id="5-wpaDUgqPkrNBBe_I43-15" style="edgeStyle=orthogonalEdgeStyle;rounded=0;orthogonalLoop=1;jettySize=auto;html=1;entryX=0;entryY=0.5;entryDx=0;entryDy=0;fontSize=20;" edge="1" parent="1" source="5-wpaDUgqPkrNBBe_I43-9" target="5-wpaDUgqPkrNBBe_I43-14">
          <mxGeometry relative="1" as="geometry" />
        </mxCell>
        <mxCell id="5-wpaDUgqPkrNBBe_I43-17" style="edgeStyle=orthogonalEdgeStyle;rounded=0;orthogonalLoop=1;jettySize=auto;html=1;entryX=0;entryY=0.5;entryDx=0;entryDy=0;fontSize=20;" edge="1" parent="1" source="5-wpaDUgqPkrNBBe_I43-9" target="5-wpaDUgqPkrNBBe_I43-16">
          <mxGeometry relative="1" as="geometry" />
        </mxCell>
        <mxCell id="5-wpaDUgqPkrNBBe_I43-18" style="edgeStyle=orthogonalEdgeStyle;rounded=0;orthogonalLoop=1;jettySize=auto;html=1;entryX=0;entryY=0.5;entryDx=0;entryDy=0;fontSize=20;" edge="1" parent="1" source="5-wpaDUgqPkrNBBe_I43-9" target="5-wpaDUgqPkrNBBe_I43-13">
          <mxGeometry relative="1" as="geometry" />
        </mxCell>
        <mxCell id="5-wpaDUgqPkrNBBe_I43-9" value="&lt;span style=&quot;color: rgb(32 , 33 , 36) ; font-family: &amp;#34;roboto&amp;#34; , &amp;#34;noto sans&amp;#34; , &amp;#34;noto sans jp&amp;#34; , &amp;#34;noto sans kr&amp;#34; , &amp;#34;noto naskh arabic&amp;#34; , &amp;#34;noto sans thai&amp;#34; , &amp;#34;noto sans hebrew&amp;#34; , &amp;#34;noto sans bengali&amp;#34; , sans-serif ; font-size: 16px ; text-align: left ; background-color: rgb(255 , 255 , 255)&quot;&gt;VPN/Server&lt;/span&gt;" style="rounded=0;whiteSpace=wrap;html=1;" vertex="1" parent="1">
          <mxGeometry x="460" y="310" width="100" height="50" as="geometry" />
        </mxCell>
        <mxCell id="5-wpaDUgqPkrNBBe_I43-13" value="&lt;span style=&quot;color: rgb(32 , 33 , 36) ; font-family: &amp;#34;roboto&amp;#34; , &amp;#34;noto sans&amp;#34; , &amp;#34;noto sans jp&amp;#34; , &amp;#34;noto sans kr&amp;#34; , &amp;#34;noto naskh arabic&amp;#34; , &amp;#34;noto sans thai&amp;#34; , &amp;#34;noto sans hebrew&amp;#34; , &amp;#34;noto sans bengali&amp;#34; , sans-serif ; font-size: 16px ; text-align: left ; background-color: rgb(255 , 255 , 255)&quot;&gt;Server1&lt;/span&gt;" style="rounded=0;whiteSpace=wrap;html=1;" vertex="1" parent="1">
          <mxGeometry x="660" y="240" width="140" height="50" as="geometry" />
        </mxCell>
        <mxCell id="5-wpaDUgqPkrNBBe_I43-14" value="&lt;span style=&quot;color: rgb(32 , 33 , 36) ; font-family: &amp;#34;roboto&amp;#34; , &amp;#34;noto sans&amp;#34; , &amp;#34;noto sans jp&amp;#34; , &amp;#34;noto sans kr&amp;#34; , &amp;#34;noto naskh arabic&amp;#34; , &amp;#34;noto sans thai&amp;#34; , &amp;#34;noto sans hebrew&amp;#34; , &amp;#34;noto sans bengali&amp;#34; , sans-serif ; font-size: 16px ; text-align: left ; background-color: rgb(255 , 255 , 255)&quot;&gt;Server2&lt;/span&gt;" style="rounded=0;whiteSpace=wrap;html=1;" vertex="1" parent="1">
          <mxGeometry x="660" y="310" width="140" height="50" as="geometry" />
        </mxCell>
        <mxCell id="5-wpaDUgqPkrNBBe_I43-16" value="&lt;span style=&quot;color: rgb(32 , 33 , 36) ; font-family: &amp;#34;roboto&amp;#34; , &amp;#34;noto sans&amp;#34; , &amp;#34;noto sans jp&amp;#34; , &amp;#34;noto sans kr&amp;#34; , &amp;#34;noto naskh arabic&amp;#34; , &amp;#34;noto sans thai&amp;#34; , &amp;#34;noto sans hebrew&amp;#34; , &amp;#34;noto sans bengali&amp;#34; , sans-serif ; font-size: 16px ; text-align: left ; background-color: rgb(255 , 255 , 255)&quot;&gt;ServerN&lt;/span&gt;" style="rounded=0;whiteSpace=wrap;html=1;" vertex="1" parent="1">
          <mxGeometry x="660" y="380" width="140" height="50" as="geometry" />
        </mxCell>
        <mxCell id="5-wpaDUgqPkrNBBe_I43-19" value="&lt;font style=&quot;font-size: 13px&quot;&gt;2FA二次验证：&lt;br&gt;&lt;font style=&quot;font-size: 13px&quot;&gt;1. 谷歌验证器&lt;br&gt;2. 短信或电话&lt;br&gt;3. 备用验证码&lt;br&gt;4. 安全秘钥&lt;/font&gt;&lt;/font&gt;" style="shape=document;whiteSpace=wrap;html=1;boundedLbl=1;fontSize=20;align=left;spacingLeft=10;spacingTop=10;" vertex="1" parent="1">
          <mxGeometry x="300" y="350" width="110" height="150" as="geometry" />
        </mxCell>
        <mxCell id="5-wpaDUgqPkrNBBe_I43-20" value="" style="edgeStyle=orthogonalEdgeStyle;rounded=0;orthogonalLoop=1;jettySize=auto;html=1;fontSize=16;entryX=0;entryY=0.5;entryDx=0;entryDy=0;" edge="1" parent="1" source="5-wpaDUgqPkrNBBe_I43-22" target="5-wpaDUgqPkrNBBe_I43-29">
          <mxGeometry relative="1" as="geometry">
            <mxPoint x="450" y="635" as="targetPoint" />
          </mxGeometry>
        </mxCell>
        <mxCell id="5-wpaDUgqPkrNBBe_I43-21" value="2FA" style="edgeLabel;html=1;align=center;verticalAlign=middle;resizable=0;points=[];fontSize=16;" vertex="1" connectable="0" parent="5-wpaDUgqPkrNBBe_I43-20">
          <mxGeometry x="-0.2" y="2" relative="1" as="geometry">
            <mxPoint as="offset" />
          </mxGeometry>
        </mxCell>
        <mxCell id="5-wpaDUgqPkrNBBe_I43-22" value="SSH" style="rounded=0;whiteSpace=wrap;html=1;fontSize=20;fontStyle=0" vertex="1" parent="1">
          <mxGeometry x="190" y="610" width="80" height="50" as="geometry" />
        </mxCell>
        <mxCell id="5-wpaDUgqPkrNBBe_I43-23" value="" style="edgeStyle=orthogonalEdgeStyle;rounded=0;orthogonalLoop=1;jettySize=auto;html=1;fontSize=20;" edge="1" parent="1" target="5-wpaDUgqPkrNBBe_I43-28">
          <mxGeometry relative="1" as="geometry">
            <mxPoint x="700" y="605" as="targetPoint" />
            <mxPoint x="570" y="635" as="sourcePoint" />
          </mxGeometry>
        </mxCell>
        <mxCell id="5-wpaDUgqPkrNBBe_I43-25" style="edgeStyle=orthogonalEdgeStyle;rounded=0;orthogonalLoop=1;jettySize=auto;html=1;entryX=0;entryY=0.5;entryDx=0;entryDy=0;fontSize=20;" edge="1" parent="1" target="5-wpaDUgqPkrNBBe_I43-30">
          <mxGeometry relative="1" as="geometry">
            <mxPoint x="570" y="635" as="sourcePoint" />
          </mxGeometry>
        </mxCell>
        <mxCell id="5-wpaDUgqPkrNBBe_I43-26" style="edgeStyle=orthogonalEdgeStyle;rounded=0;orthogonalLoop=1;jettySize=auto;html=1;entryX=0;entryY=0.5;entryDx=0;entryDy=0;fontSize=20;" edge="1" parent="1" target="5-wpaDUgqPkrNBBe_I43-28">
          <mxGeometry relative="1" as="geometry">
            <mxPoint x="570" y="635" as="sourcePoint" />
          </mxGeometry>
        </mxCell>
        <mxCell id="5-wpaDUgqPkrNBBe_I43-28" value="&lt;span style=&quot;color: rgb(32 , 33 , 36) ; font-family: &amp;#34;roboto&amp;#34; , &amp;#34;noto sans&amp;#34; , &amp;#34;noto sans jp&amp;#34; , &amp;#34;noto sans kr&amp;#34; , &amp;#34;noto naskh arabic&amp;#34; , &amp;#34;noto sans thai&amp;#34; , &amp;#34;noto sans hebrew&amp;#34; , &amp;#34;noto sans bengali&amp;#34; , sans-serif ; font-size: 16px ; text-align: left ; background-color: rgb(255 , 255 , 255)&quot;&gt;Server1&lt;/span&gt;" style="rounded=0;whiteSpace=wrap;html=1;" vertex="1" parent="1">
          <mxGeometry x="620" y="540" width="140" height="50" as="geometry" />
        </mxCell>
        <mxCell id="5-wpaDUgqPkrNBBe_I43-29" value="&lt;span style=&quot;color: rgb(32 , 33 , 36) ; font-family: &amp;#34;roboto&amp;#34; , &amp;#34;noto sans&amp;#34; , &amp;#34;noto sans jp&amp;#34; , &amp;#34;noto sans kr&amp;#34; , &amp;#34;noto naskh arabic&amp;#34; , &amp;#34;noto sans thai&amp;#34; , &amp;#34;noto sans hebrew&amp;#34; , &amp;#34;noto sans bengali&amp;#34; , sans-serif ; font-size: 16px ; text-align: left ; background-color: rgb(255 , 255 , 255)&quot;&gt;Server2&lt;/span&gt;" style="rounded=0;whiteSpace=wrap;html=1;" vertex="1" parent="1">
          <mxGeometry x="620" y="610" width="140" height="50" as="geometry" />
        </mxCell>
        <mxCell id="5-wpaDUgqPkrNBBe_I43-30" value="&lt;span style=&quot;color: rgb(32 , 33 , 36) ; font-family: &amp;#34;roboto&amp;#34; , &amp;#34;noto sans&amp;#34; , &amp;#34;noto sans jp&amp;#34; , &amp;#34;noto sans kr&amp;#34; , &amp;#34;noto naskh arabic&amp;#34; , &amp;#34;noto sans thai&amp;#34; , &amp;#34;noto sans hebrew&amp;#34; , &amp;#34;noto sans bengali&amp;#34; , sans-serif ; font-size: 16px ; text-align: left ; background-color: rgb(255 , 255 , 255)&quot;&gt;ServerN&lt;/span&gt;" style="rounded=0;whiteSpace=wrap;html=1;" vertex="1" parent="1">
          <mxGeometry x="620" y="680" width="140" height="50" as="geometry" />
        </mxCell>
        <mxCell id="5-wpaDUgqPkrNBBe_I43-35" value="&lt;font style=&quot;font-size: 16px&quot;&gt;优点：&lt;/font&gt;&lt;br style=&quot;font-size: 20px&quot;&gt;&lt;font&gt;1. 无新增成本&lt;br&gt;2. 不用外部IP&lt;br&gt;3.&amp;nbsp;&lt;br&gt;4. 只需一次二次验证&lt;br&gt;&lt;br&gt;缺点：&lt;br&gt;1. 权限控制不够&lt;br&gt;&lt;/font&gt;" style="whiteSpace=wrap;html=1;aspect=fixed;fontSize=16;align=left;spacingLeft=10;" vertex="1" parent="1">
          <mxGeometry x="880" y="240" width="210" height="210" as="geometry" />
        </mxCell>
        <mxCell id="5-wpaDUgqPkrNBBe_I43-36" value="&lt;font style=&quot;font-size: 16px&quot;&gt;优点：&lt;/font&gt;&lt;br style=&quot;font-size: 20px&quot;&gt;&lt;font&gt;1. 无新增成本&lt;br&gt;2. 不用外部IP&lt;br&gt;3. 权限精确控制&lt;br&gt;&lt;br&gt;缺点：&lt;br&gt;1. 每个虚拟机都需要二次验证，操作麻烦&lt;br&gt;&lt;/font&gt;" style="whiteSpace=wrap;html=1;aspect=fixed;fontSize=16;align=left;spacingLeft=10;" vertex="1" parent="1">
          <mxGeometry x="880" y="525" width="220" height="220" as="geometry" />
        </mxCell>
        <mxCell id="5-wpaDUgqPkrNBBe_I43-37" value="" style="edgeStyle=orthogonalEdgeStyle;rounded=0;orthogonalLoop=1;jettySize=auto;html=1;fontSize=16;" edge="1" parent="1" source="5-wpaDUgqPkrNBBe_I43-39" target="5-wpaDUgqPkrNBBe_I43-43">
          <mxGeometry relative="1" as="geometry" />
        </mxCell>
        <mxCell id="5-wpaDUgqPkrNBBe_I43-38" value="2FA" style="edgeLabel;html=1;align=center;verticalAlign=middle;resizable=0;points=[];fontSize=16;" vertex="1" connectable="0" parent="5-wpaDUgqPkrNBBe_I43-37">
          <mxGeometry x="-0.2" y="2" relative="1" as="geometry">
            <mxPoint as="offset" />
          </mxGeometry>
        </mxCell>
        <mxCell id="5-wpaDUgqPkrNBBe_I43-39" value="Brower" style="rounded=0;whiteSpace=wrap;html=1;fontSize=20;fontStyle=0" vertex="1" parent="1">
          <mxGeometry x="200" y="1000" width="90" height="50" as="geometry" />
        </mxCell>
        <mxCell id="5-wpaDUgqPkrNBBe_I43-40" style="edgeStyle=orthogonalEdgeStyle;rounded=0;orthogonalLoop=1;jettySize=auto;html=1;entryX=0;entryY=0.5;entryDx=0;entryDy=0;fontSize=20;" edge="1" parent="1" source="5-wpaDUgqPkrNBBe_I43-43" target="5-wpaDUgqPkrNBBe_I43-45">
          <mxGeometry relative="1" as="geometry" />
        </mxCell>
        <mxCell id="5-wpaDUgqPkrNBBe_I43-41" style="edgeStyle=orthogonalEdgeStyle;rounded=0;orthogonalLoop=1;jettySize=auto;html=1;entryX=0;entryY=0.5;entryDx=0;entryDy=0;fontSize=20;" edge="1" parent="1" source="5-wpaDUgqPkrNBBe_I43-43" target="5-wpaDUgqPkrNBBe_I43-46">
          <mxGeometry relative="1" as="geometry" />
        </mxCell>
        <mxCell id="5-wpaDUgqPkrNBBe_I43-42" style="edgeStyle=orthogonalEdgeStyle;rounded=0;orthogonalLoop=1;jettySize=auto;html=1;entryX=0;entryY=0.5;entryDx=0;entryDy=0;fontSize=20;" edge="1" parent="1" source="5-wpaDUgqPkrNBBe_I43-43" target="5-wpaDUgqPkrNBBe_I43-44">
          <mxGeometry relative="1" as="geometry" />
        </mxCell>
        <mxCell id="5-wpaDUgqPkrNBBe_I43-43" value="&lt;span style=&quot;color: rgb(32 , 33 , 36) ; font-family: &amp;#34;roboto&amp;#34; , &amp;#34;noto sans&amp;#34; , &amp;#34;noto sans jp&amp;#34; , &amp;#34;noto sans kr&amp;#34; , &amp;#34;noto naskh arabic&amp;#34; , &amp;#34;noto sans thai&amp;#34; , &amp;#34;noto sans hebrew&amp;#34; , &amp;#34;noto sans bengali&amp;#34; , sans-serif ; font-size: 16px ; text-align: left ; background-color: rgb(255 , 255 , 255)&quot;&gt;Bastion&lt;/span&gt;" style="rounded=0;whiteSpace=wrap;html=1;" vertex="1" parent="1">
          <mxGeometry x="480" y="1000" width="85" height="50" as="geometry" />
        </mxCell>
        <mxCell id="5-wpaDUgqPkrNBBe_I43-44" value="&lt;span style=&quot;color: rgb(32 , 33 , 36) ; font-family: &amp;#34;roboto&amp;#34; , &amp;#34;noto sans&amp;#34; , &amp;#34;noto sans jp&amp;#34; , &amp;#34;noto sans kr&amp;#34; , &amp;#34;noto naskh arabic&amp;#34; , &amp;#34;noto sans thai&amp;#34; , &amp;#34;noto sans hebrew&amp;#34; , &amp;#34;noto sans bengali&amp;#34; , sans-serif ; font-size: 16px ; text-align: left ; background-color: rgb(255 , 255 , 255)&quot;&gt;Server1&lt;/span&gt;" style="rounded=0;whiteSpace=wrap;html=1;" vertex="1" parent="1">
          <mxGeometry x="655" y="930" width="140" height="50" as="geometry" />
        </mxCell>
        <mxCell id="5-wpaDUgqPkrNBBe_I43-45" value="&lt;span style=&quot;color: rgb(32 , 33 , 36) ; font-family: &amp;#34;roboto&amp;#34; , &amp;#34;noto sans&amp;#34; , &amp;#34;noto sans jp&amp;#34; , &amp;#34;noto sans kr&amp;#34; , &amp;#34;noto naskh arabic&amp;#34; , &amp;#34;noto sans thai&amp;#34; , &amp;#34;noto sans hebrew&amp;#34; , &amp;#34;noto sans bengali&amp;#34; , sans-serif ; font-size: 16px ; text-align: left ; background-color: rgb(255 , 255 , 255)&quot;&gt;Server2&lt;/span&gt;" style="rounded=0;whiteSpace=wrap;html=1;" vertex="1" parent="1">
          <mxGeometry x="655" y="1000" width="140" height="50" as="geometry" />
        </mxCell>
        <mxCell id="5-wpaDUgqPkrNBBe_I43-46" value="&lt;span style=&quot;color: rgb(32 , 33 , 36) ; font-family: &amp;#34;roboto&amp;#34; , &amp;#34;noto sans&amp;#34; , &amp;#34;noto sans jp&amp;#34; , &amp;#34;noto sans kr&amp;#34; , &amp;#34;noto naskh arabic&amp;#34; , &amp;#34;noto sans thai&amp;#34; , &amp;#34;noto sans hebrew&amp;#34; , &amp;#34;noto sans bengali&amp;#34; , sans-serif ; font-size: 16px ; text-align: left ; background-color: rgb(255 , 255 , 255)&quot;&gt;ServerN&lt;/span&gt;" style="rounded=0;whiteSpace=wrap;html=1;" vertex="1" parent="1">
          <mxGeometry x="655" y="1070" width="140" height="50" as="geometry" />
        </mxCell>
        <mxCell id="5-wpaDUgqPkrNBBe_I43-47" value="&lt;font style=&quot;font-size: 16px&quot;&gt;优点：&lt;/font&gt;&lt;br style=&quot;font-size: 20px&quot;&gt;&lt;font&gt;1. 权限精确控制&lt;br&gt;2. 审查/回放/账号管理&lt;br&gt;&lt;br&gt;缺点：&lt;br&gt;1. 新增40美元+/月 成本&lt;br&gt;&lt;/font&gt;" style="whiteSpace=wrap;html=1;aspect=fixed;fontSize=16;align=left;spacingLeft=10;" vertex="1" parent="1">
          <mxGeometry x="880" y="930" width="210" height="210" as="geometry" />
        </mxCell>
        <mxCell id="5-wpaDUgqPkrNBBe_I43-48" value="2. bastion" style="text;html=1;strokeColor=none;fillColor=none;align=center;verticalAlign=middle;whiteSpace=wrap;rounded=0;fontStyle=1;fontSize=23;" vertex="1" parent="1">
          <mxGeometry x="40" y="1000" width="110" height="30" as="geometry" />
        </mxCell>
        <mxCell id="5-wpaDUgqPkrNBBe_I43-49" value="&lt;font style=&quot;font-size: 13px&quot;&gt;2FA二次验证：&lt;br&gt;&lt;font style=&quot;font-size: 13px&quot;&gt;1. 谷歌验证器&lt;br&gt;2. 短信或电话&lt;br&gt;3. 备用验证码&lt;br&gt;4. 安全秘钥&lt;/font&gt;&lt;/font&gt;" style="shape=document;whiteSpace=wrap;html=1;boundedLbl=1;fontSize=20;align=left;spacingLeft=10;spacingTop=10;" vertex="1" parent="1">
          <mxGeometry x="360" y="650" width="130" height="150" as="geometry" />
        </mxCell>
        <mxCell id="5-wpaDUgqPkrNBBe_I43-50" value="&lt;font style=&quot;font-size: 13px&quot;&gt;2FA二次验证：&lt;br&gt;&lt;font style=&quot;font-size: 13px&quot;&gt;1. 谷歌验证器&lt;br&gt;&lt;/font&gt;&lt;/font&gt;" style="shape=document;whiteSpace=wrap;html=1;boundedLbl=1;fontSize=20;align=left;spacingLeft=10;spacingTop=10;" vertex="1" parent="1">
          <mxGeometry x="320" y="1040" width="110" height="80" as="geometry" />
        </mxCell>
      </root>
    </mxGraphModel>
  </diagram>
</mxfile>
